<svg width="50" height="17" viewBox="0 0 50 17" fill="none" xmlns="http://www.w3.org/2000/svg">
<path d="M5.42343 5.4117H3.94086C3.89017 5.10609 3.85215 4.94056 3.7888 4.72409L3.61773 4.18292H1.81203L1.64097 4.72409C1.5586 4.97876 1.51425 5.17613 1.48257 5.4117H0C0.0950367 5.2207 0.152059 5.06789 0.304118 4.63496L1.67265 0.802205C1.78669 0.490236 1.84371 0.299235 1.87539 0.114601H3.52903C3.57338 0.299235 3.61773 0.464769 3.74445 0.802205L5.11931 4.63496C5.23969 4.97239 5.34106 5.23343 5.42343 5.4117ZM3.30728 3.11332L2.70538 1.20331L2.11615 3.11332H3.30728Z" fill="white"/>
<path d="M5.82333 0.114601H7.10949V1.06961H5.82333V0.114601ZM5.80432 1.52801H7.1285C7.09048 1.78904 7.07781 2.04371 7.07781 2.48938V4.45032C7.07781 4.79413 7.09682 5.13793 7.1285 5.4117H5.80432C5.84233 5.09973 5.855 4.85779 5.855 4.45032V2.48938C5.855 2.07554 5.84233 1.81451 5.80432 1.52801Z" fill="white"/>
<path d="M14.6582 1.70628L13.353 1.96094C13.2326 1.38157 12.8968 1.09507 12.352 1.09507C11.579 1.09507 11.1291 1.70628 11.1291 2.75678C11.1291 3.79455 11.598 4.42486 12.3836 4.42486C12.7321 4.42486 13.0299 4.27842 13.2136 4.02376C13.3213 3.87095 13.3657 3.74362 13.4037 3.47622L14.7215 3.67359C14.6012 4.21476 14.4618 4.52672 14.1957 4.83869C13.8028 5.29073 13.1883 5.53266 12.4216 5.53266C11.6487 5.53266 10.9961 5.29073 10.5463 4.83233C10.0774 4.35482 9.8113 3.60992 9.8113 2.75678C9.8113 1.89091 10.0774 1.15874 10.5779 0.662137C11.0151 0.235568 11.655 0 12.3963 0C13.2136 0 13.8535 0.280135 14.2654 0.834038C14.4681 1.09507 14.5758 1.33064 14.6582 1.70628Z" fill="white"/>
<path d="M17.1844 5.55813C15.9109 5.55813 15.0999 4.74319 15.0999 3.46349C15.0999 2.19015 15.9109 1.38157 17.1908 1.38157C18.4706 1.38157 19.2816 2.19015 19.2816 3.45075C19.2816 4.71773 18.4452 5.55813 17.1844 5.55813ZM17.1971 2.33658C16.6395 2.33658 16.3101 2.75678 16.3101 3.45712C16.3101 4.16382 16.6395 4.59039 17.1908 4.59039C17.742 4.59039 18.0588 4.17656 18.0588 3.46985C18.0588 2.75678 17.7356 2.33658 17.1971 2.33658Z" fill="white"/>
<path d="M21.1053 5.4117H19.7938C19.8318 5.11246 19.8445 4.84506 19.8445 4.45032V2.48938C19.8445 2.05008 19.8318 1.78268 19.7938 1.52801H21.0546V1.79541C21.0546 1.83361 21.0483 1.92911 21.0483 1.97368C21.4474 1.59168 21.8339 1.43251 22.3534 1.43251C22.7906 1.43251 23.1391 1.55348 23.3735 1.78904C23.6269 2.04371 23.7346 2.35568 23.7346 2.85865V4.45669C23.7346 4.82596 23.7536 5.14429 23.7853 5.4117H22.4675C22.5055 5.10609 22.5182 4.83869 22.5182 4.45032V3.14515C22.5182 2.89048 22.4928 2.78225 22.4168 2.67401C22.3344 2.55941 22.1887 2.49575 21.9986 2.49575C21.6438 2.49575 21.327 2.71858 21.0546 3.16425V4.45032C21.0546 4.81323 21.0673 5.08063 21.1053 5.4117Z" fill="white"/>
<path d="M24.3009 4.25296L25.5554 4.11289C25.6187 4.44396 25.8341 4.59039 26.2586 4.59039C26.6388 4.59039 26.8542 4.48216 26.8542 4.28479C26.8542 4.18929 26.8035 4.10652 26.7148 4.05559C26.6261 4.00466 26.5438 3.97919 26.1953 3.90915C25.7138 3.81365 25.4667 3.74999 25.2576 3.67995C24.9535 3.56535 24.7444 3.41892 24.624 3.22792C24.5226 3.05602 24.4656 2.83955 24.4656 2.62308C24.4656 1.85908 25.1055 1.39431 26.1636 1.39431C26.7655 1.39431 27.2153 1.52801 27.5131 1.80178C27.7222 1.98641 27.8236 2.17105 27.925 2.52758L26.7022 2.66128C26.6705 2.40025 26.5121 2.28565 26.1699 2.28565C25.8405 2.28565 25.6377 2.39388 25.6377 2.55941C25.6377 2.73131 25.7708 2.79498 26.398 2.93505C27.0189 3.06875 27.2153 3.12605 27.4371 3.24065C27.8489 3.44439 28.0453 3.75635 28.0453 4.21476C28.0453 4.55219 27.9313 4.85779 27.7222 5.06153C27.4181 5.36713 26.8986 5.5263 26.2206 5.5263C25.4223 5.5263 24.8584 5.30983 24.5543 4.88963C24.4276 4.71136 24.3642 4.55856 24.3009 4.25296Z" fill="white"/>
<path d="M31.2658 1.52801H32.5773C32.5393 1.82724 32.5266 2.09464 32.5266 2.48301V4.45032C32.5266 4.88963 32.5393 5.15066 32.5773 5.40533H31.3165V5.13156C31.3165 5.09973 31.3165 5.00423 31.3228 4.95966C30.9047 5.3544 30.5435 5.5072 30.005 5.5072C29.5805 5.5072 29.2383 5.38623 28.9976 5.15066C28.7442 4.89599 28.6364 4.58403 28.6364 4.08106V2.48301C28.6364 2.11374 28.6174 1.79541 28.5858 1.52801H29.9036C29.8656 1.83361 29.8529 2.10101 29.8529 2.48301V3.78819C29.8529 4.04922 29.8783 4.16382 29.9543 4.26569C30.043 4.38029 30.1824 4.44396 30.3661 4.44396C30.7146 4.44396 31.0694 4.19566 31.3165 3.78819V2.48301C31.3165 2.12648 31.3038 1.85908 31.2658 1.52801Z" fill="white"/>
<path d="M33.2449 0.114601H34.5691C34.5311 0.382002 34.5184 0.643037 34.5184 1.07597V4.45032C34.5184 4.83233 34.5311 5.07426 34.5691 5.4117H33.2449C33.2829 5.12519 33.2956 4.90873 33.2956 4.45032V1.07597C33.2956 0.623937 33.2829 0.356536 33.2449 0.114601Z" fill="white"/>
<path d="M35.7378 1.52801V1.39431C35.7378 1.07597 35.7251 0.821304 35.6871 0.52207H36.9796C36.9479 0.783104 36.9289 1.08871 36.9289 1.39431V1.52801H37.157C37.4358 1.52801 37.5815 1.52164 37.7779 1.49617V2.55305C37.5878 2.52758 37.4231 2.51485 37.195 2.51485H36.9289V4.14472C36.9289 4.32299 36.9606 4.41212 37.0429 4.46942C37.1126 4.51399 37.214 4.53946 37.3344 4.53946C37.4991 4.53946 37.6195 4.50762 37.7779 4.42486L37.8729 5.3926C37.5878 5.48173 37.3407 5.51993 36.9986 5.51993C36.5678 5.51993 36.27 5.4499 36.0672 5.2971C35.8265 5.11246 35.7378 4.89599 35.7378 4.46306V2.51485H35.497C35.2943 2.51485 35.1295 2.52758 34.9458 2.55305V1.48981C35.1295 1.51528 35.2879 1.52801 35.5097 1.52801H35.7378Z" fill="white"/>
<path d="M40.8097 2.89685V2.75042C40.8097 2.44481 40.6259 2.30475 40.2078 2.30475C39.8023 2.30475 39.5869 2.43845 39.4918 2.75042L38.2817 2.55305C38.4084 2.17741 38.5478 1.97368 38.8139 1.78268C39.156 1.54074 39.6249 1.41977 40.2394 1.41977C40.7083 1.41977 41.1645 1.50891 41.4116 1.64261C41.817 1.86544 41.9944 2.21561 41.9944 2.78862V4.50762C41.9944 4.89599 42.0071 5.12519 42.0388 5.4117H40.8097V5.11883C40.4549 5.3926 40.1001 5.50083 39.5805 5.50083C39.099 5.50083 38.7379 5.38623 38.4844 5.15066C38.2563 4.94056 38.136 4.63496 38.136 4.28479C38.136 3.88369 38.2944 3.56535 38.5985 3.35525C38.9216 3.12605 39.3461 2.99235 39.9163 2.94142C40.1634 2.91595 40.3535 2.90958 40.8097 2.89685ZM40.8097 3.89005V3.71179C40.2458 3.72452 39.9733 3.75635 39.7136 3.83912C39.4855 3.91552 39.3461 4.07469 39.3461 4.25932C39.3461 4.48852 39.5362 4.62223 39.8656 4.62223C40.1254 4.62223 40.4105 4.52672 40.5816 4.38029C40.7273 4.25296 40.8097 4.08106 40.8097 3.89005Z" fill="white"/>
<path d="M44.023 5.4117H42.7115C42.7495 5.11246 42.7622 4.84506 42.7622 4.45032V2.48938C42.7622 2.05008 42.7495 1.78268 42.7115 1.52801H43.9723V1.79541C43.9723 1.83361 43.966 1.92911 43.966 1.97368C44.3651 1.59168 44.7516 1.43251 45.2711 1.43251C45.7083 1.43251 46.0568 1.55348 46.2912 1.78904C46.5446 2.04371 46.6523 2.35568 46.6523 2.85865V4.45669C46.6523 4.82596 46.6713 5.14429 46.703 5.4117H45.3852C45.4232 5.10609 45.4359 4.83869 45.4359 4.45032V3.14515C45.4359 2.89048 45.4105 2.78225 45.3345 2.67401C45.2521 2.55941 45.1064 2.49575 44.9163 2.49575C44.5615 2.49575 44.2447 2.71858 43.9723 3.16425V4.45032C43.9723 4.81323 43.985 5.08063 44.023 5.4117Z" fill="white"/>
<path d="M47.8648 1.52801V1.39431C47.8648 1.07597 47.8522 0.821304 47.8142 0.52207H49.1067C49.075 0.783104 49.056 1.08871 49.056 1.39431V1.52801H49.2841C49.5628 1.52801 49.7086 1.52164 49.905 1.49617V2.55305C49.7149 2.52758 49.5502 2.51485 49.3221 2.51485H49.056V4.14472C49.056 4.32299 49.0877 4.41212 49.17 4.46942C49.2397 4.51399 49.3411 4.53946 49.4615 4.53946C49.6262 4.53946 49.7466 4.50762 49.905 4.42486L50 5.3926C49.7149 5.48173 49.4678 5.51993 49.1257 5.51993C48.6948 5.51993 48.3971 5.4499 48.1943 5.2971C47.9535 5.11246 47.8648 4.89599 47.8648 4.46306V2.51485H47.6241C47.4213 2.51485 47.2566 2.52758 47.0729 2.55305V1.48981C47.2566 1.51528 47.415 1.52801 47.6368 1.52801H47.8648Z" fill="white"/>
<path d="M0.0987817 15.2294V9.27258C0.0987817 8.52935 0.0768302 8.16866 0 7.66589C0.43903 7.68775 0.713423 7.69868 1.62441 7.69868H3.91834C5.26836 7.69868 6.35496 8.07029 7.09033 8.78074C7.89156 9.56769 8.29766 10.7153 8.29766 12.169C8.29766 13.6664 7.85863 14.8687 7.02448 15.6993C6.2891 16.4207 5.24641 16.7923 3.94029 16.7923H1.62441C0.779278 16.7923 0.471957 16.8033 0.0109757 16.8251C0.0768302 16.3442 0.0987817 15.9835 0.0987817 15.2294ZM2.27198 14.8796H3.74273C4.45615 14.8796 4.96104 14.6938 5.35616 14.3003C5.80617 13.8413 6.04764 13.109 6.04764 12.2018C6.04764 11.2727 5.8391 10.5951 5.41104 10.1688C5.02689 9.78628 4.50006 9.61141 3.7098 9.61141H2.27198V14.8796Z" fill="white"/>
<path d="M16.2819 14.825V16.8688C15.81 16.8142 15.4148 16.7923 14.4709 16.7923H11.0136C10.1794 16.7923 9.87208 16.8033 9.40012 16.8251C9.46598 16.3879 9.48793 15.9835 9.48793 15.2294V9.26165C9.48793 8.584 9.46598 8.20145 9.40012 7.66589C9.85013 7.68775 10.1574 7.69868 11.0136 7.69868H14.5148C15.2612 7.69868 15.6343 7.67682 16.1502 7.62217V9.66606C15.6453 9.61141 15.2502 9.58955 14.5148 9.58955H11.6611V11.1962H14.0319C14.7563 11.1962 15.0197 11.1853 15.6783 11.1197V13.1418C15.1624 13.0871 14.7892 13.0652 14.0319 13.0652H11.6611V14.9015H14.4929C15.327 14.9015 15.81 14.8796 16.2819 14.825Z" fill="white"/>
<path d="M17.1217 14.0489L19.4047 13.8303C19.4486 14.2238 19.5254 14.4205 19.6901 14.6391C19.9535 14.967 20.4145 15.1529 20.9742 15.1529C21.8194 15.1529 22.3242 14.7812 22.3242 14.1692C22.3242 13.8303 22.1486 13.5352 21.8633 13.4041C21.6328 13.2948 21.3584 13.2183 20.2169 12.9559C19.2071 12.7374 18.8559 12.6062 18.4498 12.322C17.7583 11.8411 17.3852 11.1088 17.3852 10.2235C17.3852 8.54028 18.7461 7.48008 20.9084 7.48008C22.3023 7.48008 23.3669 7.90635 23.9596 8.72609C24.234 9.08677 24.3657 9.41467 24.5084 10.0377L22.1815 10.2891C22.0498 9.57862 21.6547 9.28351 20.8206 9.28351C20.151 9.28351 19.6571 9.6442 19.6571 10.147C19.6571 10.453 19.8218 10.6825 20.173 10.8465C20.3925 10.9449 20.3925 10.9449 21.6876 11.2072C22.5218 11.382 23.0486 11.5679 23.4657 11.8302C24.256 12.322 24.6511 13.0543 24.6511 14.0599C24.6511 14.8796 24.3877 15.5791 23.8828 16.071C23.2462 16.683 22.2803 17 20.9962 17C20.0632 17 19.1413 16.8033 18.5486 16.4644C17.9998 16.1584 17.5937 15.6884 17.3632 15.0654C17.2534 14.8031 17.1986 14.5517 17.1217 14.0489Z" fill="white"/>
<path d="M30.6293 11.2946L33.2744 15.1747C33.922 16.1365 34.0647 16.3333 34.4379 16.7923H31.5842C31.4305 16.4426 31.1122 15.8633 30.8268 15.4042L29.1256 12.6936L28.017 13.7975V15.1747C28.017 15.8524 28.039 16.213 28.1049 16.7923H25.778C25.8438 16.2349 25.8658 15.8305 25.8658 15.1747V9.3163C25.8658 8.64958 25.8438 8.22331 25.778 7.69868H28.1049C28.039 8.26703 28.017 8.62772 28.017 9.3163V11.2509L30.2012 8.92282C30.6293 8.4747 30.9146 8.10308 31.1561 7.69868H34.1196C33.922 7.89542 33.8452 7.98286 33.6915 8.13587C33.1208 8.70423 33.1208 8.70423 32.9232 8.90096L30.6293 11.2946Z" fill="white"/>
<path d="M42.1028 14.825V16.8688C41.6308 16.8142 41.2357 16.7923 40.2918 16.7923H36.8344C36.0003 16.7923 35.6929 16.8033 35.221 16.8251C35.2868 16.3879 35.3088 15.9835 35.3088 15.2294V9.26165C35.3088 8.584 35.2868 8.20145 35.221 7.66589C35.671 7.68775 35.9783 7.69868 36.8344 7.69868H40.3357C41.082 7.69868 41.4552 7.67682 41.9711 7.62217V9.66606C41.4662 9.61141 41.0711 9.58955 40.3357 9.58955H37.482V11.1962H39.8528C40.5772 11.1962 40.8406 11.1853 41.4991 11.1197V13.1418C40.9833 13.0871 40.6101 13.0652 39.8528 13.0652H37.482V14.9015H40.3137C41.1479 14.9015 41.6308 14.8796 42.1028 14.825Z" fill="white"/>
<path d="M48.178 16.7923H44.8414C44.0841 16.7923 43.6341 16.8033 43.217 16.8251C43.2828 16.4426 43.3048 15.9617 43.3048 15.2294V9.45839C43.3048 8.6933 43.2828 8.22331 43.217 7.69868H45.6097C45.5329 8.26703 45.5219 8.57307 45.5219 9.4256V14.8468H48.178C49.111 14.8468 49.4841 14.8359 50 14.7703V16.8688C49.5939 16.8142 49.0561 16.7923 48.178 16.7923Z" fill="white"/>
</svg>
