<svg xmlns="http://www.w3.org/2000/svg" width="200" height="200" viewBox="0 0 200 200" fill="none"><rect width="200" height="200" rx="45" fill="#023CB6"/><path d="M35.5188 82.7003V51.4145C35.5188 47.5109 35.4035 45.6165 35 42.9759C37.3058 43.0907 38.747 43.1481 43.5316 43.1481H55.5797C62.6702 43.1481 68.3772 45.0999 72.2395 48.8312C76.4476 52.9644 78.5805 58.992 78.5805 66.6269C78.5805 74.4914 76.2747 80.806 71.8936 85.1688C68.0313 88.9575 62.5549 90.9093 55.695 90.9093H43.5316C39.0929 90.9093 37.4788 90.9667 35.0576 91.0815C35.4035 88.5557 35.5188 86.6613 35.5188 82.7003ZM46.9328 80.8634H54.6574C58.4044 80.8634 61.0561 79.8875 63.1313 77.8209C65.4948 75.4099 66.7631 71.5637 66.7631 66.7991C66.7631 61.9196 65.6678 58.3605 63.4196 56.1217C61.402 54.1125 58.6349 53.194 54.4844 53.194H46.9328V80.8634Z" fill="white"/><path d="M120.515 80.5763V91.3111C118.036 91.0241 115.961 90.9093 111.003 90.9093H92.8448C88.4637 90.9093 86.8496 90.9667 84.3708 91.0815C84.7167 88.7853 84.832 86.6613 84.832 82.7003V51.3571C84.832 47.7979 84.7167 45.7887 84.3708 42.9759C86.7343 43.0907 88.3484 43.1481 92.8448 43.1481H111.234C115.154 43.1481 117.114 43.0333 119.823 42.7463V53.4811C117.172 53.194 115.096 53.0792 111.234 53.0792H96.2459V61.5178H108.698C112.502 61.5178 113.886 61.4604 117.344 61.116V71.7359C114.635 71.4489 112.675 71.3341 108.698 71.3341H96.2459V80.9782H111.119C115.5 80.9782 118.036 80.8634 120.515 80.5763Z" fill="white"/><path d="M124.926 76.5006L136.916 75.3525C137.147 77.4191 137.55 78.4523 138.415 79.6005C139.799 81.3226 142.22 82.2985 145.16 82.2985C149.598 82.2985 152.25 80.3467 152.25 77.132C152.25 75.3525 151.328 73.8025 149.829 73.1137C148.618 72.5396 147.177 72.1378 141.182 70.76C135.879 69.6119 134.034 68.9231 131.901 67.4305C128.269 64.9047 126.309 61.0585 126.309 56.4087C126.309 47.5683 133.457 42 144.814 42C152.135 42 157.727 44.2388 160.839 48.5442C162.281 50.4386 162.972 52.1607 163.722 55.4328L151.501 56.7532C150.809 53.0218 148.734 51.4719 144.353 51.4719C140.836 51.4719 138.242 53.3662 138.242 56.0069C138.242 57.6142 139.107 58.8197 140.951 59.6808C142.104 60.1975 142.104 60.1975 148.907 61.5752C153.288 62.4937 156.055 63.4696 158.245 64.8473C162.396 67.4305 164.471 71.2767 164.471 76.558C164.471 80.8634 163.088 84.5373 160.436 87.1206C157.092 90.3352 152.02 92 145.275 92C140.375 92 135.533 90.9667 132.42 89.1871C129.538 87.5798 127.405 85.1114 126.194 81.8393C125.618 80.4615 125.329 79.1412 124.926 76.5006Z" fill="white"/><path d="M61.2326 126.858L75.5359 147.839C79.0375 153.04 79.809 154.104 81.8269 156.586H66.396C65.5651 154.695 63.8439 151.563 62.3008 149.08L53.1017 134.423L47.1073 140.392V147.839C47.1073 151.504 47.226 153.454 47.5821 156.586H35C35.3561 153.572 35.4748 151.385 35.4748 147.839V116.161C35.4748 112.556 35.3561 110.251 35 107.414H47.5821C47.226 110.487 47.1073 112.437 47.1073 116.161V126.622L58.9179 114.033C61.2326 111.61 62.7757 109.6 64.0814 107.414H80.1058C79.0375 108.478 78.622 108.95 77.7911 109.778C74.705 112.851 74.705 112.851 73.6367 113.915L61.2326 126.858Z" fill="white"/><path d="M123.274 145.948V157C120.722 156.704 118.585 156.586 113.481 156.586H94.786C90.2755 156.586 88.6136 156.645 86.0616 156.764C86.4177 154.4 86.5364 152.213 86.5364 148.135V115.865C86.5364 112.201 86.4177 110.132 86.0616 107.236C88.4949 107.355 90.1568 107.414 94.786 107.414H113.719C117.754 107.414 119.772 107.296 122.562 107V118.052C119.832 117.756 117.695 117.638 113.719 117.638H98.2876V126.326H111.107C115.024 126.326 116.449 126.267 120.01 125.913V136.846C117.22 136.551 115.202 136.433 111.107 136.433H98.2876V146.362H113.6C118.11 146.362 120.722 146.243 123.274 145.948Z" fill="white"/><path d="M156.125 156.586H138.083C133.987 156.586 131.554 156.645 129.299 156.764C129.655 154.695 129.774 152.095 129.774 148.135V116.929C129.774 112.792 129.655 110.251 129.299 107.414H142.237C141.822 110.487 141.762 112.142 141.762 116.752V146.066H156.125C161.17 146.066 163.187 146.007 165.977 145.652V157C163.781 156.704 160.873 156.586 156.125 156.586Z" fill="white"/></svg>